
<?xml version="1.0" encoding="utf-8"?>
<!-- Generator: Adobe Illustrator 19.2.0, SVG Export Plug-In . SVG Version: 6.00 Build 0)  -->
<svg version="1.1" id="Layer_1" xmlns="http://www.w3.org/2000/svg" xmlns:xlink="http://www.w3.org/1999/xlink" x="0px" y="0px"
	 viewBox="0 0 960 960" style="enable-background:new 0 0 960 960;" xml:space="preserve">
<style type="text/css">
	.st0{fill:#FFFFFF;}
	.st1{fill:#FBB03B;}
	.st2{fill:#CCCCCC;}
</style>
<g>
	<path class="st0" d="M208.9,427.4h302.2c19.7,0,35.8,16,35.8,35.8v188.5c0,19.7-16,35.8-35.8,35.8h-67.7v76.8L361,687.4H209
		c-19.7,0-35.8-16-35.8-35.8V463.2C173.2,443.4,189.2,427.4,208.9,427.4z"/>
	<path class="st1" d="M755.7,195.7H444.3c-17.2,0-31.2,14-31.2,31.2v197.6c0,17.2,14,31.2,31.2,31.2h72.3v76.8l82.5-76.8h156.6
		c17.2,0,31.2-14,31.2-31.2V226.9C786.8,209.7,772.9,195.7,755.7,195.7z"/>
	<circle class="st0" cx="506.7" cy="327.2" r="24.1"/>
	<circle class="st0" cx="596.9" cy="327.2" r="24.1"/>
	<circle class="st0" cx="687.2" cy="327.2" r="24.1"/>
	<rect x="240.5" y="501.2" class="st2" width="232.3" height="20.1"/>
	<rect x="240.5" y="549.2" class="st2" width="232.3" height="20.1"/>
	<rect x="240.5" y="597.2" class="st2" width="232.3" height="20.1"/>
</g>
</svg>
